<?xml version="1.0" standalone="no"?>
<!DOCTYPE svg PUBLIC "-//W3C//DTD SVG 20010904//EN"
 "http://www.w3.org/TR/2001/REC-SVG-20010904/DTD/svg10.dtd">
<svg version="1.0" xmlns="http://www.w3.org/2000/svg"
 width="700.000000pt" height="700.000000pt" viewBox="0 0 700.000000 700.000000"
 preserveAspectRatio="xMidYMid meet">
<metadata>
Created by potrace 1.14, written by Peter Selinger 2001-2017
</metadata>
<g transform="translate(0.000000,700.000000) scale(0.100000,-0.100000)"
fill="#000000" stroke="none">
<path d="M4158 6343 l-77 -4 -3 -77 -3 -77 -162 -3 -163 -2 0 -80 0 -80 -487
-2 -488 -3 -5 -80 -5 -80 -157 -3 -157 -3 -3 -77 -3 -77 -77 -3 -78 -3 0 -152
c0 -106 -4 -157 -12 -165 -7 -7 -42 -12 -85 -12 l-73 0 0 -640 0 -639 78 -3
77 -3 3 -82 3 -83 -243 -2 -243 -3 -5 -80 -5 -80 -77 -3 -77 -3 -3 -77 -3 -77
-80 -5 -80 -5 -3 -157 -3 -157 -77 -3 -77 -3 0 -485 0 -485 78 -3 77 -3 0
-159 0 -159 -158 -3 -157 -3 -5 -80 -5 -80 -160 -5 -160 -5 -3 -77 -3 -77 -77
-3 -77 -3 -3 -77 c-2 -43 2 -87 8 -98 20 -37 174 -225 274 -334 188 -205 466
-435 708 -586 319 -199 719 -363 1085 -445 129 -29 354 -65 366 -58 4 2 7 69
7 149 l0 144 80 0 80 0 0 80 0 80 570 0 571 0 -3 -73 -3 -72 -165 -5 -165 -5
-3 -83 -3 -83 -152 3 -152 3 -3 83 -3 82 -169 0 -170 0 0 -85 0 -85 -75 0 -75
0 0 -73 0 -74 113 -6 c214 -13 339 -6 674 38 189 25 363 69 645 166 339 115
700 317 1003 559 213 171 552 520 512 528 -14 3 -17 23 -19 165 l-3 162 -80 5
-80 5 -3 77 -3 78 -159 0 -159 0 -3 83 -3 82 -162 3 -163 2 0 320 0 319 -77 3
-78 3 -3 162 -2 163 -158 2 c-197 4 -450 0 -480 -7 l-22 -5 2 -238 3 -237 83
-3 82 -3 -2 -322 -3 -322 -76 -3 -76 -3 -6 -121 c-4 -67 -7 -174 -7 -239 l0
-118 -77 -3 -78 -3 -3 -82 -3 -82 -77 -3 -77 -3 -5 -75 -5 -75 -155 0 -155 0
-9 157 -8 158 -74 0 -74 0 0 -75 0 -75 -159 0 -159 0 -6 83 c-4 45 -9 115 -12
155 l-6 72 -159 0 -159 0 0 -75 0 -75 -75 0 -75 0 0 80 0 80 75 0 75 0 0 75 0
75 -80 0 -80 0 0 -75 0 -76 -77 3 -78 3 -3 75 c-2 41 -6 77 -8 79 -5 5 -42 7
-189 9 l-125 2 0 75 0 75 75 0 75 0 0 80 0 80 -80 0 -80 0 0 -75 0 -75 -75 0
-75 0 0 75 0 74 73 3 72 3 3 78 3 77 -81 0 -80 0 0 -75 0 -76 -77 3 -78 3 -3
157 -3 157 78 3 78 3 3 440 c2 242 0 459 -3 483 l-6 42 -74 0 -74 0 -3 -157
-3 -158 -80 -5 -80 -5 -3 -157 -3 -158 -74 0 -75 0 0 240 0 240 80 0 80 0 0
160 0 160 80 0 80 0 0 80 0 80 80 0 79 0 3 -72 3 -73 157 -3 158 -3 0 81 0 80
43 0 c23 0 59 3 80 6 l37 7 0 232 c0 127 3 455 7 728 l6 497 159 0 158 0 0
-245 c0 -209 2 -246 15 -251 8 -4 81 -2 162 2 l148 9 0 235 0 235 -72 3 c-46
2 -75 8 -83 17 -8 10 -10 55 -4 163 l7 149 230 6 c127 3 234 4 239 1 4 -3 8
-41 8 -85 l0 -79 248 2 247 3 3 78 3 77 74 0 75 0 0 -80 0 -80 243 -2 242 -3
5 -80 5 -80 80 0 80 0 -3 156 c-2 127 0 158 12 168 9 7 40 11 83 9 l68 -3 5
-80 5 -80 73 -3 72 -3 1 28 c1 15 2 51 3 78 l1 50 83 3 82 3 0 79 0 79 -77 3
-78 3 0 80 0 80 78 3 77 3 0 239 0 240 -80 0 -80 0 0 79 c0 45 -5 83 -11 86
-5 4 -77 4 -160 0 l-149 -8 0 -79 0 -79 -82 3 -83 3 -3 83 -3 82 -42 0 c-23 0
-92 -3 -154 -7 l-112 -6 -3 -76 -3 -76 -85 0 -85 0 -3 83 -3 82 -77 -2 c-42
-1 -112 -4 -154 -5z m-2054 -3739 c14 -5 16 -29 16 -160 l0 -154 -80 0 -80 0
0 153 c0 85 3 157 7 160 8 9 116 9 137 1z m2446 -1709 l0 -75 -75 0 -75 0 0
75 0 75 75 0 75 0 0 -75z m160 -160 l0 -75 -70 0 -70 0 0 75 0 75 70 0 70 0 0
-75z"/>
<path d="M5370 5130 l0 -80 80 0 80 0 0 80 0 80 -80 0 -80 0 0 -80z"/>
</g>
</svg>
